<?xml version="1.0" encoding="UTF-8"?>
<svg id="Laag_1" data-name="Laag 1" xmlns="http://www.w3.org/2000/svg" xmlns:xlink="http://www.w3.org/1999/xlink" viewBox="0 0 500 500">
  <defs>
    <style>
      .cls-1 {
        fill: url(#Naamloos_verloop_28);
      }
    </style>
    <linearGradient id="Naamloos_verloop_28" data-name="Naamloos verloop 28" x1="69.03" y1="249.65" x2="423.5" y2="249.65" gradientUnits="userSpaceOnUse">
      <stop offset="0" stop-color="#e20613"/>
      <stop offset="1" stop-color="#f8b133"/>
    </linearGradient>
  </defs>
  <path class="cls-1" d="M69.03,50.92c.04-1.94.37-5.04,1.95-8.43.49-1.05,1.66-3.32,3.87-5.64,2.12-2.22,4.19-3.43,4.99-3.87,0,0,3.47-1.91,7.86-2.42,5.65-.66,41.79-.77,91.34,0l146.26,146.26V48.91c0-5.06,1.77-9.41,5.31-13.05,3.64-3.54,7.99-5.31,13.05-5.31h72.98c5.06,0,9.41,1.77,13.05,5.31,3.54,3.64,5.31,7.99,5.31,13.05v402.07c0,5.06-1.77,9.36-5.31,12.9-3.64,3.54-7.99,5.31-13.05,5.31h-72.98c-5.06,0-9.41-1.77-13.05-5.31-3.54-3.54-5.31-7.84-5.31-12.9v-109.7l-146.26-146.26v164.62c.13,6.8.22,47.01-32.1,78.77-31.51,30.97-70.43,30.91-77.45,30.78-.16-139.42-.31-278.84-.47-418.26ZM130.34,91.55v-48.7h-12.14v48.7h12.14ZM130.34,201.24v-48.86h-12.14v48.86h12.14ZM130.34,310.79v-48.7h-12.14v48.7h12.14ZM130.34,420.48v-48.7h-12.14v48.7h12.14ZM386.3,91.55v-48.7h-12.29v48.7h12.29ZM386.3,201.24v-48.86h-12.29v48.86h12.29ZM386.3,310.79v-48.7h-12.29v48.7h12.29ZM386.3,420.48v-48.7h-12.29v48.7h12.29Z"/>
</svg>