<svg xmlns="http://www.w3.org/2000/svg" viewBox="0 0 100 100" width="200" height="200">
<clipPath id="c"><rect width="100" height="100" rx="12"/></clipPath>
<g clip-path="url(#c)">
<rect width="100" height="100" fill="#e7e5e4"/>
<path d="M-4 9h14M20 9h14M44 9h14M68 9h14M92 9h14" stroke="#ffffff" stroke-width="2.4" stroke-linecap="round"/>

<rect x="-30" y="50" width="40" height="30" stroke="#c7c3be" stroke-width="1.6" stroke-dasharray="4 3" fill="none"/>
<rect x="90" y="50" width="40" height="30" stroke="#c7c3be" stroke-width="1.6" stroke-dasharray="4 3" fill="none"/>
<rect x="12" y="50" width="76" height="30" rx="2" fill="#fff7ed" stroke="#ea580c" stroke-width="3"/>
<g transform="rotate(90 50 65)">
<rect x="37.9" y="51.66" width="24.2" height="3.48" rx="1" fill="#334155"/>
<rect x="39.5" y="36.0" width="21" height="58" rx="6.72" fill="#334155"/>
<rect x="42.44" y="48.76" width="15.12" height="8.7" rx="2.52" fill="#bfdbfe"/>
<rect x="42.86" y="58.04" width="14.280000000000001" height="20.88" rx="2.1" fill="#475569"/>
<rect x="43.28" y="80.08" width="13.44" height="5.22" rx="2.1" fill="#bfdbfe"/>
</g>

<rect y="80" width="100" height="20" fill="#f5f5f4"/><path d="M10 80v20" stroke="#d6d3d1" stroke-width="1"/><path d="M25 80v20" stroke="#d6d3d1" stroke-width="1"/><path d="M40 80v20" stroke="#d6d3d1" stroke-width="1"/><path d="M55 80v20" stroke="#d6d3d1" stroke-width="1"/><path d="M70 80v20" stroke="#d6d3d1" stroke-width="1"/><path d="M85 80v20" stroke="#d6d3d1" stroke-width="1"/>
<path d="M0 80h100" stroke="#78716c" stroke-width="3"/>
</g>
</svg>
